<?xml version="1.0" standalone="yes"?>
<svg xmlns="http://www.w3.org/2000/svg" width="600" height="600">
<path style="fill:#010101; stroke:none;" d="M0 0L0 600L238 600C238 568.269 235.243 538.317 259 514L259 517L276 510.451L306 511.996L328 513C328 509.544 335.31 514.124 338 514.833C346.783 517.151 351.011 525.356 354.833 533C364.894 553.121 362 578.107 362 600L600 600L600 0L0 0z"/>
<path style="fill:#ededee; stroke:none;" d="M260 493C270.322 508.265 302.537 506.361 318 503.193C323.537 502.059 331.565 499.685 335 495C346.244 495.915 353.028 482.966 356.536 474C365.886 450.104 362 421.127 362 396L362 219C362 190.912 367.19 156.666 356.746 130C344.162 97.8687 317.105 92.5281 286 94.0401C255.546 95.5205 238.327 128.801 238.004 156C237.025 238.307 238 320.686 238 403C238 426.286 234.868 451.813 243.228 474C245.925 481.156 250.825 493.861 260 493z"/>
<path style="fill:#010101; stroke:none;" d="M298 382C305.309 380.782 299.218 374.691 298 382M299.603 399.157C297.87 400.314 299.664 403.001 301.397 401.843C303.13 400.686 301.336 397.999 299.603 399.157M293 450L293 451C317.677 451 346.851 464.656 332 493C343.711 482.959 339.053 466.602 327.961 458.301C317.865 450.746 305.101 450 293 450M287 451L287 452L291 452L287 451M283 452L283 453L286 453L283 452M281 453L282 454L281 453M262 467L263 468L262 467M261 469L262 470L261 469M260.333 472.667L260.667 473.333L260.333 472.667M259 476L259 481L260 481L259 476M247 477L248 478L247 477M260 482L260 485L261 485L260 482M261 486L262 487L261 486M253 488L254 489L253 488M256 490L257 491L256 490M341 491L342 492L341 491M258 492L259 493L258 492z"/>
<path style="fill:#ededee; stroke:none;" d="M259 517L259 514C232.948 533.268 238 571.592 238 600L362 600C362 577.72 364.855 552.663 354.755 532C350.463 523.221 346.388 517.349 337 514.278C334.6 513.492 328.609 509.563 328 513C320.662 508.506 313.997 511.789 306 511.985C288.711 512.409 274.393 507.511 259 517M326 510L327 511L326 510z"/>
<path style="fill:#010101; stroke:none;" d="M333 518C343.998 544.815 319.568 558.984 295 559L295 560C306.188 559.999 318.85 558.543 327.999 551.471C338.381 543.446 343.809 528.188 333 518M340 518L341 519L340 518M261 523L262 524L261 523M260 525L260 528L261 528L260 525M259 529L259 534L260 534L259 529M352 535L353 536L352 535M260.333 536.667L260.667 537.333L260.333 536.667M261 540L262 541L261 540M279 555L280 556L279 555M281.667 556.333L282.333 556.667L281.667 556.333M284 557L284 558L287 558L284 557M288 558L288 559L293 559L288 558z"/>
</svg>
