<svg height="960" viewBox="0 0 960 960" width="960" xmlns="http://www.w3.org/2000/svg"><g fill="#000" fill-rule="evenodd"><path d="M130 340 L830 340 Q880 340 880 390 L880 610 Q880 660 830 660 L130 660 Q80 660 80 610 L80 390 Q80 340 130 340 Z M162 375 L798 375 Q843 375 843 415 L843 585 Q843 625 798 625 L162 625 Q117 625 117 585 L117 415 Q117 375 162 375 Z"/><circle cx="188" cy="500" r="32"/><path d="M726 428 L796 428 L810 452 L810 518 L796 542 L726 542 L712 518 L712 452 Z M735 441 L787 441 L799 460 L799 510 L787 529 L735 529 L723 510 L723 460 Z"/><path d="M604 427 L670 427 Q676 427 676 433 L676 487 Q676 493 670 493 L604 493 Q598 493 598 487 L598 433 Q598 427 604 427 Z M613 437 L661 437 Q666 437 666 442 L666 478 Q666 483 661 483 L613 483 Q608 483 608 478 L608 442 Q608 437 613 437 Z"/><path d="M531 447 Q531 436 548 436 L592 436 Q609 436 609 447 L609 463 Q609 474 592 474 L548 474 Q531 474 531 463 Z M541 451 Q541 447 548 447 L592 447 Q599 447 599 451 L599 459 Q599 463 592 463 L548 463 Q541 463 541 459 Z"/><rect x="283" y="353" width="65" height="8" rx="4"/><rect x="368" y="353" width="65" height="8" rx="4"/><rect x="453" y="353" width="65" height="8" rx="4"/><path d="M146 660 L146 706 Q146 724 162 724 L230 724 Q246 724 246 706 L246 660 Z M162 678 L162 706 Q162 709 165 709 L227 709 Q230 709 230 706 L230 678 Z"/><path d="M714 660 L714 706 Q714 724 730 724 L798 724 Q814 724 814 706 L814 660 Z M730 678 L730 706 Q730 709 733 709 L795 709 Q798 709 798 706 L798 678 Z"/></g></svg>
