<svg height="960" viewBox="0 0 960 960" width="960" xmlns="http://www.w3.org/2000/svg"><g fill="#000" fill-rule="evenodd"><path d="M340 50 L620 50 Q660 50 660 90 L660 870 Q660 910 620 910 L340 910 Q300 910 300 870 L300 90 Q300 50 340 50 Z M364 86 L596 86 Q626 86 626 116 L626 844 Q626 874 596 874 L364 874 Q334 874 334 844 L334 116 Q334 86 364 86 Z"/><path d="M414 200 A66 66 0 1 0 546 200 A66 66 0 1 0 414 200 Z M436 200 A44 44 0 1 0 524 200 A44 44 0 1 0 436 200 Z"/><circle cx="480" cy="200" r="26"/><rect x="362" y="313" width="236" height="13" rx="6"/><rect x="362" y="337" width="236" height="13" rx="6"/><rect x="362" y="361" width="236" height="13" rx="6"/><rect x="362" y="385" width="236" height="13" rx="6"/><rect x="362" y="409" width="236" height="13" rx="6"/><path d="M352 452 L608 452 Q618 452 618 462 L618 570 Q618 580 608 580 L352 580 Q342 580 342 570 L342 462 Q342 452 352 452 Z M366 467 L594 467 Q604 467 604 477 L604 555 Q604 565 594 565 L366 565 Q356 565 356 555 L356 477 Q356 467 366 467 Z"/><path d="M408 710 A72 72 0 1 0 552 710 A72 72 0 1 0 408 710 Z M432 710 A48 48 0 1 0 528 710 A48 48 0 1 0 432 710 Z"/><path d="M390 796 L570 796 Q578 796 578 804 L578 856 Q578 864 570 864 L390 864 Q382 864 382 856 L382 804 Q382 796 390 796 Z M402 808 L558 808 Q564 808 564 814 L564 846 Q564 852 558 852 L402 852 Q396 852 396 846 L396 814 Q396 808 402 808 Z"/></g></svg>
