<svg height="960" viewBox="0 0 960 960" width="960" xmlns="http://www.w3.org/2000/svg"><g fill="#000" fill-rule="evenodd"><path d="M210 200 L750 200 Q800 200 800 250 L800 710 Q800 760 750 760 L210 760 Q160 760 160 710 L160 250 Q160 200 210 200 Z M242 240 L718 240 Q758 240 758 280 L758 680 Q758 720 718 720 L242 720 Q202 720 202 680 L202 280 Q202 240 242 240 Z"/><path d="M310 480 A170 170 0 1 0 650 480 A170 170 0 1 0 310 480 Z M330 480 A150 150 0 1 0 630 480 A150 150 0 1 0 330 480 Z"/><path d="M370 480 A110 110 0 1 0 590 480 A110 110 0 1 0 370 480 Z M389 480 A91 91 0 1 0 571 480 A91 91 0 1 0 389 480 Z"/><path d="M426 480 A54 54 0 1 0 534 480 A54 54 0 1 0 426 480 Z M443 480 A37 37 0 1 0 517 480 A37 37 0 1 0 443 480 Z"/><circle cx="480" cy="480" r="22"/><path d="M800 438 L848 438 L848 522 L800 522 Z M814 452 L834 452 L834 508 L814 508 Z"/><path d="M112 438 L160 438 L160 522 L112 522 Z M126 452 L146 452 L146 508 L126 508 Z"/><circle cx="700" cy="300" r="24"/><circle cx="270" cy="622" r="12"/><circle cx="316" cy="622" r="12"/><circle cx="362" cy="622" r="12"/><circle cx="270" cy="668" r="12"/><circle cx="316" cy="668" r="12"/><circle cx="362" cy="668" r="12"/></g></svg>
