<svg height="960" viewBox="0 0 960 960" width="960" xmlns="http://www.w3.org/2000/svg"><g fill="#000" fill-rule="evenodd"><path d="m240 170h480c33.137 0 60 26.863 60 60v500c0 33.137-26.863 60-60 60h-480c-33.137 0-60-26.863-60-60v-500c0-33.137 26.863-60 60-60zm0 40c-11.046 0-20 8.954-20 20v500c0 11.046 8.954 20 20 20h480c11.046 0 20-8.954 20-20v-500c0-11.046-8.954-20-20-20z" fill-rule="nonzero"/><path d="m300 85a35 35 0 1 1 0 70 35 35 0 1 1 0-70zm360 0a35 35 0 1 1 0 70 35 35 0 1 1 0-70zm-360 720a35 35 0 1 1 0 70 35 35 0 1 1 0-70zm360 0a35 35 0 1 1 0 70 35 35 0 1 1 0-70zm-270-455a30 30 0 1 1 0 60 30 30 0 1 1 0-60zm180 0a30 30 0 1 1 0 60 30 30 0 1 1 0-60zm-180 200a30 30 0 1 1 0 60 30 30 0 1 1 0-60zm180 0a30 30 0 1 1 0 60 30 30 0 1 1 0-60z"/><path d="m350 380h70v30h-70zm190 0h70v30h-70zm-130 86h140v28h-140zm-60 114h70v30h-70zm190 0h70v30h-70z"/></g></svg>
